<?xml version="1.0" encoding="UTF-8" standalone="no"?><svg xmlns="http://www.w3.org/2000/svg" xmlns:xlink="http://www.w3.org/1999/xlink" fill="#000000" height="29.4" overflow="visible" preserveAspectRatio="xMidYMid meet" version="1" viewBox="17.3 15.3 97.2 29.4" width="97.2" zoomAndPan="magnify">
 <g id="change1_1"><path d="m21.203 29.24h-3.903v-4.793h4.003v-1.217c0-5.897 2.68-7.95 7.97-7.95 1.432 0 2.534 0.228 3.38 0.38l-0.404 4.717c-0.55-0.2-1.102-0.304-2.093-0.304-1.7 0-2.35 1.217-2.35 3.158v1.217h4.7v4.793h-4.7v15.026h-6.6zm14.764-13.506h6.6v28.53h-6.6zm12.267 0.466h6.6v5.02h-6.6zm0 8.256h6.6v19.82h-6.6zm26.482 5.658c-1.212-0.76-2.424-1.103-4.003-1.103-2.865 0-5.07 2.054-5.07 5.478 0 3.157 2.57 5.2 5.436 5.2 1.506 0 3.012-0.342 4.114-0.95l0.147 5.097c-1.653 0.57-3.636 0.875-5.4 0.875-6.318 0-11.13-3.804-11.13-10.347 0-6.58 4.8-10.385 11.13-10.385 1.983 0 3.746 0.342 5.252 1.103zm15.572-5.668h7.235l-6.648 9.092 7.2 10.728h-8.007l-5.3-9.814h-0.074v9.814h-6.6v-28.53h6.6v17.044h0.074z" fill="#d9d9d9"/></g>
 <g id="change2_1"><path d="m114.2 29.923c-0.735-0.228-1.47-0.228-2.24-0.228-3.085 0-4.812 2.32-4.812 6.2v8.37h-6.6v-19.82h6.023v3.652h0.074c1.138-2.5 2.8-4.108 5.656-4.108 0.77 0 1.58 0.114 2.24 0.228z" fill="#d9d9d9"/></g>
</svg>