<?xml version="1.0" encoding="UTF-8" standalone="no"?><svg xmlns="http://www.w3.org/2000/svg" xmlns:xlink="http://www.w3.org/1999/xlink" fill="#ffffff" height="473.3" preserveAspectRatio="xMidYMid meet" version="1" viewBox="0.0 0.0 473.3 473.3" width="473.3" zoomAndPan="magnify"><g id="change1_1"><path d="M236.6464844,473.2929688c-4.1420898,0-7.5-3.3574219-7.5-7.5V244.1464844H7.5c-4.1420898,0-7.5-3.3574219-7.5-7.5 c0-4.1420898,3.3579102-7.5,7.5-7.5h221.6464844V7.5c0-4.1420898,3.3579102-7.5,7.5-7.5c4.1425781,0,7.5,3.3579102,7.5,7.5 v221.6464844h221.6464844c4.1425781,0,7.5,3.3579102,7.5,7.5c0,4.1425781-3.3574219,7.5-7.5,7.5H244.1464844v221.6464844 C244.1464844,469.9355469,240.7890625,473.2929688,236.6464844,473.2929688z" fill="inherit"/></g></svg>