<?xml version="1.0" encoding="UTF-8" standalone="no"?><svg xmlns="http://www.w3.org/2000/svg" xmlns:xlink="http://www.w3.org/1999/xlink" fill="#000000" height="3023.6" preserveAspectRatio="xMidYMid meet" version="1" viewBox="0.0 0.0 2076.3 3023.6" width="2076.3" zoomAndPan="magnify"><g id="change1_1"><path clip-rule="evenodd" d="M1038.17,0c573.36,0,1038.17,464.81,1038.17,1038.18 c0,199.5-56.31,385.8-153.85,544.01c-117,193.8-234.01,387.63-351,581.46c-142.5,231.62-257.8,419.06-400.28,650.69 c-125.62,204.23-134.11,209.25-260.39,3.97c-141.77-230.47-260.96-424.2-402.72-654.66c-116.74-191.65-233.44-383.29-350.18-574.92 C57.91,1429.13,0,1240.43,0,1038.18C0,464.81,464.81,0,1038.17,0L1038.17,0z M1038.17,520.5c257.04,0,465.42,208.38,465.42,465.41 c0,257.05-208.37,465.41-465.42,465.41s-465.42-208.37-465.42-465.41C572.76,728.88,781.13,520.5,1038.17,520.5L1038.17,520.5z" fill="#ffe8e8" fill-rule="evenodd"/></g></svg>